<?xml version="1.0" encoding="UTF-8" standalone="no"?>
<svg xmlns:svg="http://www.w3.org/2000/svg" xmlns="http://www.w3.org/2000/svg"  width="123.20881" height="129.1232"  version="1.0">

  <g transform="translate(-97.7472, -82.0196)">
    <g transform="translate(56.5685, -220.213)">
      <g>
        <rect style="fill: rgb(255, 255, 255); fill-opacity: 1; stroke: rgb(0, 0, 0); stroke-width: 5.107; stroke-linejoin: round; stroke-miterlimit: 4; stroke-dasharray: none; stroke-opacity: 1;"  width="118.10181" height="34.511684" x="43.732117" y="394.29083" ry="3.7880721" rx="3.5355339"/>
        <g id="g6040" transform="translate(-234.355, 215.264)">
          <path transform="matrix(4.25678, 0, 0, 5.67571, -947.215, -882.848)" d="M 290.6714,188.80803 A 0.50507629,0.37880722 0 1 1 289.66124,188.80803 A 0.50507629,0.37880722 0 1 1 290.6714,188.80803 z"   style="fill: rgb(0, 0, 0); fill-opacity: 1; stroke: none; stroke-width: 5.107; stroke-linejoin: round; stroke-miterlimit: 4; stroke-dasharray: none; stroke-opacity: 1;" />
          <path transform="matrix(4.25678, 0, 0, 5.67571, -947.139, -875.337)" d="M 290.6714,188.80803 A 0.50507629,0.37880722 0 1 1 289.66124,188.80803 A 0.50507629,0.37880722 0 1 1 290.6714,188.80803 z"  style="fill: rgb(0, 0, 0); fill-opacity: 1; stroke: none; stroke-width: 5.107; stroke-linejoin: round; stroke-miterlimit: 4; stroke-dasharray: none; stroke-opacity: 1;" />
          <path transform="matrix(4.25678, 0, 0, 5.67571, -947.177, -867.826)" d="M 290.6714,188.80803 A 0.50507629,0.37880722 0 1 1 289.66124,188.80803 A 0.50507629,0.37880722 0 1 1 290.6714,188.80803 z" style="fill: rgb(0, 0, 0); fill-opacity: 1; stroke: none; stroke-width: 5.107; stroke-linejoin: round; stroke-miterlimit: 4; stroke-dasharray: none; stroke-opacity: 1;" />
        </g>
        <g id="g6045" transform="translate(-226.528, 215.264)">
          <path transform="matrix(4.25678, 0, 0, 5.67571, -947.215, -882.848)" d="M 290.6714,188.80803 A 0.50507629,0.37880722 0 1 1 289.66124,188.80803 A 0.50507629,0.37880722 0 1 1 290.6714,188.80803 z"  style="fill: rgb(0, 0, 0); fill-opacity: 1; stroke: none; stroke-width: 5.107; stroke-linejoin: round; stroke-miterlimit: 4; stroke-dasharray: none; stroke-opacity: 1;" />
          <path transform="matrix(4.25678, 0, 0, 5.67571, -947.139, -875.337)" d="M 290.6714,188.80803 A 0.50507629,0.37880722 0 1 1 289.66124,188.80803 A 0.50507629,0.37880722 0 1 1 290.6714,188.80803 z" style="fill: rgb(0, 0, 0); fill-opacity: 1; stroke: none; stroke-width: 5.107; stroke-linejoin: round; stroke-miterlimit: 4; stroke-dasharray: none; stroke-opacity: 1;" />
          <path transform="matrix(4.25678, 0, 0, 5.67571, -947.177, -867.826)" d="M 290.6714,188.80803 A 0.50507629,0.37880722 0 1 1 289.66124,188.80803 A 0.50507629,0.37880722 0 1 1 290.6714,188.80803 z"  style="fill: rgb(0, 0, 0); fill-opacity: 1; stroke: none; stroke-width: 5.107; stroke-linejoin: round; stroke-miterlimit: 4; stroke-dasharray: none; stroke-opacity: 1;" />
        </g>
        <g id="g6053" transform="translate(-218.701, 215.264)">
          <path transform="matrix(4.25678, 0, 0, 5.67571, -947.215, -882.848)" d="M 290.6714,188.80803 A 0.50507629,0.37880722 0 1 1 289.66124,188.80803 A 0.50507629,0.37880722 0 1 1 290.6714,188.80803 z"  style="fill: rgb(0, 0, 0); fill-opacity: 1; stroke: none; stroke-width: 5.107; stroke-linejoin: round; stroke-miterlimit: 4; stroke-dasharray: none; stroke-opacity: 1;" />
          <path transform="matrix(4.25678, 0, 0, 5.67571, -947.139, -875.337)" d="M 290.6714,188.80803 A 0.50507629,0.37880722 0 1 1 289.66124,188.80803 A 0.50507629,0.37880722 0 1 1 290.6714,188.80803 z"  style="fill: rgb(0, 0, 0); fill-opacity: 1; stroke: none; stroke-width: 5.107; stroke-linejoin: round; stroke-miterlimit: 4; stroke-dasharray: none; stroke-opacity: 1;" />
          <path transform="matrix(4.25678, 0, 0, 5.67571, -947.177, -867.826)" d="M 290.6714,188.80803 A 0.50507629,0.37880722 0 1 1 289.66124,188.80803 A 0.50507629,0.37880722 0 1 1 290.6714,188.80803 z"  style="fill: rgb(0, 0, 0); fill-opacity: 1; stroke: none; stroke-width: 5.107; stroke-linejoin: round; stroke-miterlimit: 4; stroke-dasharray: none; stroke-opacity: 1;" />
        </g>
        <rect style="fill: rgb(0, 0, 0); fill-opacity: 1; stroke: none; stroke-width: 0.825066; stroke-linejoin: round; stroke-miterlimit: 4; stroke-dasharray: none; stroke-opacity: 1;" id="rect6061" width="32.480167" height="4.6471467" x="115.58481" y="405.91321" ry="1.0151564" rx="1.2248749"/>
      </g>
      <g>
        <rect style="fill: rgb(255, 255, 255); fill-opacity: 1; stroke: rgb(0, 0, 0); stroke-width: 6.07562; stroke-linejoin: round; stroke-miterlimit: 4; stroke-dasharray: none; stroke-opacity: 1;" id="rect6063" width="78.007935" height="73.949165" x="63.779053" y="305.27063" ry="2.5609717" rx="2.3352709"/>
        <rect style="fill: rgb(0, 0, 0); fill-opacity: 1; stroke: rgb(0, 0, 0); stroke-width: 4.19665; stroke-linejoin: round; stroke-miterlimit: 4; stroke-dasharray: none; stroke-opacity: 1;" id="rect6067" width="53.882935" height="51.079395" x="75.841553" y="316.70554" ry="1.7689569" rx="1.613057"/>
      </g>
    </g>
  </g>
</svg>
