<?xml version="1.0" encoding="UTF-8" standalone="no"?>
<svg xmlns:svg="http://www.w3.org/2000/svg" xmlns="http://www.w3.org/2000/svg"  width="207.60913" height="226.90083"  version="1.0">

  <g transform="translate(-40, -45.3825)">
    <path style="stroke-width: 1; stroke-miterlimit: 4; stroke-dasharray: 1, 2; stroke-dashoffset: 0pt;" id="path1872"  d="M 86.368042,50.038319 A 18.940361,18.940361 0 1 1 48.48732,50.038319 A 18.940361,18.940361 0 1 1 86.368042,50.038319 z" transform="matrix(1.05595, 0, 0, 1.05595, -5.74313, 12.5447)"/>
    <rect style="stroke-width: 1; stroke-miterlimit: 4; stroke-dasharray: 1, 2; stroke-dashoffset: 0pt;" id="rect1874" width="48.992401" height="114.69568" x="40" y="87.666504" ry="17.172594" rx="17.172594"/>
    <rect style="stroke-width: 1; stroke-miterlimit: 4; stroke-dasharray: 1, 2; stroke-dashoffset: 0pt;" id="rect1880" width="110.10663" height="29.294424" x="40.406101" y="173.79344" ry="14.647212" rx="14.647212"/>
    <rect style="stroke-width: 1; stroke-miterlimit: 4; stroke-dasharray: 1, 2; stroke-dashoffset: 0pt;" id="rect1884" width="22.223356" height="92.934036" x="128.28937" y="179.34927" ry="11.111678" rx="11.111678"/>
    <rect style="stroke-width: 1; stroke-miterlimit: 4; stroke-dasharray: 1, 2; stroke-dashoffset: 0pt;" id="rect1890" width="145.96704" height="16.162441" x="100.08632" y="142.98378" ry="7.8286824" rx="7.8286819"/>
    <rect style="stroke-width: 1; stroke-miterlimit: 4; stroke-dasharray: 1, 2; stroke-dashoffset: 0pt;" id="rect1892" width="37.880722" height="14.647212" x="108.08633" y="127.04215" rx="8.3553581" ry="7.8286824"/>
    <rect style="stroke-width: 1; stroke-miterlimit: 4; stroke-dasharray: 1, 2; stroke-dashoffset: 0pt;" id="rect1900" width="64.649788" height="15.152294" x="117.04251" y="6.8155155" rx="10.375669" ry="6.9960728" transform="matrix(0.713376, 0.700782, -0.700782, 0.713376, 0, 0)"/>
    <rect style="stroke-width: 1; stroke-miterlimit: 4; stroke-dasharray: 1, 2; stroke-dashoffset: 0pt;" id="rect1906" width="28.789347" height="13.637059" x="147.50256" y="127.54723" rx="5.0507627" ry="11.111678"/>
    <rect style="stroke-width: 1; stroke-miterlimit: 4; stroke-dasharray: 1, 2; stroke-dashoffset: 0pt;" id="rect1910" width="45.961941" height="9.5964489" x="193.76909" y="132.0726" rx="1.5152287" ry="9.5964489"/>
    <rect style="stroke-width: 1; stroke-miterlimit: 4; stroke-dasharray: 1, 2; stroke-dashoffset: 0pt;" id="rect1912" width="18.182745" height="17.421562" x="208.49753" y="118.94063" rx="1.5152287" ry="9.5964489"/>
    <rect style="stroke-width: 1; stroke-miterlimit: 4; stroke-dasharray: 1, 2; stroke-dashoffset: 0pt;" id="rect1914" width="10.606602" height="69.700523" x="179.74878" y="63.661659" rx="1.5152287" ry="9.5964489"/>
    <path style="fill: rgb(0, 0, 0); fill-opacity: 1; fill-rule: evenodd; stroke: rgb(0, 0, 0); stroke-width: 1px; stroke-linecap: butt; stroke-linejoin: miter; stroke-opacity: 1;" d="M 187.83001,70.816238 L 247.10913,86.978679 L 247.10913,118.79848 L 188.33509,127.38478 L 187.83001,70.816238 z" id="path1938" />
    <rect style="fill: rgb(0, 0, 0); fill-opacity: 1; stroke-width: 1; stroke-miterlimit: 4; stroke-dasharray: 1, 2; stroke-dashoffset: 0pt;" id="rect2827" width="66.670067" height="11.111678" x="42.911179" y="205.87465" rx="1.5152287" ry="9.5964489"/>
    <rect style="fill: rgb(0, 0, 0); fill-opacity: 1; stroke-width: 1; stroke-miterlimit: 4; stroke-dasharray: 1, 2; stroke-dashoffset: 0pt;" id="rect2829" width="11.616755" height="60.104073" x="70.225906" y="211.4305" rx="1.5152287" ry="9.5964489"/>
  </g>
</svg>
