<?xml version="1.0" encoding="UTF-8" standalone="no"?>
<svg height="100.00000pt" width="100.00000pt" xmlns="http://www.w3.org/2000/svg" xmlns:xlink="http://www.w3.org/1999/xlink">
  <defs id="defs1755">
    <linearGradient id="linearGradient4358">
      <stop id="stop4359" offset="0" style="stop-color: rgb(0, 0, 0); stop-opacity: 1;"/>
      <stop id="stop4360" offset="1" style="stop-color: rgb(255, 255, 255); stop-opacity: 1;"/>
    </linearGradient>
    <linearGradient id="linearGradient4362">
      <stop id="stop4363" offset="0.0000000" style="stop-color: rgb(255, 255, 255); stop-opacity: 0.666667;"/>
      <stop id="stop4364" offset="1.0000000" style="stop-color: rgb(255, 255, 255); stop-opacity: 0;"/>
    </linearGradient>
    <linearGradient id="linearGradient4376">
      <stop id="stop4377" offset="0.0000000" style="stop-color: rgb(0, 0, 0); stop-opacity: 0.526455;"/>
      <stop id="stop4378" offset="1.0000000" style="stop-color: rgb(0, 0, 0); stop-opacity: 0;"/>
    </linearGradient>
    <linearGradient id="linearGradient4384">
      <stop id="stop4385" offset="0.0000000" style="stop-color: rgb(255, 255, 255); stop-opacity: 0.775132;"/>
      <stop id="stop4386" offset="1.0000000" style="stop-color: rgb(255, 255, 255); stop-opacity: 0;"/>
    </linearGradient>
    <linearGradient id="linearGradient1815" x1="0.56837606" x2="0.55982906" xlink:href="#linearGradient4376" y1="1.8492152e-15" y2="0.46875000"/>
    <radialGradient cx="0.35624999" cy="0.45312500" fx="0.35624999" fy="0.46875000" id="radialGradient1818" r="0.33272079" xlink:href="#linearGradient4362"/>
    <radialGradient cx="0.27333334" cy="0.31250000" fx="0.28000000" fy="0.30468750" id="radialGradient1822"  r="0.40007627" xlink:href="#linearGradient4362"/>
    <radialGradient cx="0.22000000" cy="0.24218750" fx="0.26000002" fy="0.25781250" id="radialGradient1824"  r="0.50000000" xlink:href="#linearGradient4362"/>
    <radialGradient cx="0.34883720" cy="0.37500000" fx="0.34883720" fy="0.37500000" id="radialGradient1828"  r="0.50000000" xlink:href="#linearGradient4362"/>
  </defs>
  <path d="M 59.384690,67.874109 C 64.134091,73.057671 67.156438,82.344885 73.848777,82.344886 C 80.325234,80.545037 81.188762,65.138340 82.052289,61.826621 C 74.712305,66.866194 67.156439,69.745950 59.384690,67.874109 z " id="path9383"   style="fill: rgb(255, 255, 255); fill-opacity: 1; fill-rule: evenodd; stroke: rgb(0, 0, 0); stroke-width: 3.75; stroke-linecap: round; stroke-linejoin: round; stroke-miterlimit: 4; stroke-opacity: 1;" transform="translate(-0.0514718, 2.37648)"/>
  <path d="M 211.21884 70.290855 A 60.941830 57.825485 0 1 0 89.335178,70.290855 A 60.941830 57.825485 0 1 0 211.21884 70.290855 z"  style="fill: rgb(241, 187, 150); fill-opacity: 1; fill-rule: evenodd; stroke: rgb(0, 0, 0); stroke-width: 8.50416; stroke-linecap: round; stroke-linejoin: round; stroke-miterlimit: 4; stroke-opacity: 1;" transform="matrix(0.440859, 0, 0, 0.441062, -2.72402, 13.8286)"/>
  <path d="M 30.386319,94.680779 C 29.995678,119.87704 94.625077,122.75840 94.468777,94.680779 C 96.013564,72.352032 84.908333,59.656332 82.148662,61.814802 C 80.747421,62.910779 80.226786,87.250565 70.758854,81.651923 C 66.155974,78.930124 61.007516,68.475060 58.754909,68.128195 C 55.355834,67.604791 48.847086,64.852693 42.869372,59.701984 C 41.301079,58.350664 30.915768,72.240973 30.386319,94.680779 z " id="path4369"  style="fill: rgb(35, 62, 106); fill-opacity: 1; fill-rule: evenodd; stroke: rgb(0, 0, 0); stroke-width: 3.75; stroke-linecap: round; stroke-linejoin: round; stroke-miterlimit: 4; stroke-opacity: 1;" transform="translate(-0.0514718, 2.37648)"/>
  <path d="M 58.300883,3.7719997 C 40.391067,6.0930474 25.528443,18.341770 31.471630,46.202530 C 33.185665,55.946088 40.730937,60.014653 43.499833,41.253902 C 51.397401,43.739652 85.597346,53.697763 92.305717,36.356747 C 96.298888,29.189444 87.992626,1.3902274 58.300883,3.7719997 z " id="path11309"  style="fill: rgb(81, 54, 36); fill-opacity: 1; fill-rule: evenodd; stroke: rgb(0, 0, 0); stroke-width: 3.75; stroke-linecap: round; stroke-linejoin: round; stroke-miterlimit: 4; stroke-opacity: 1;" transform="translate(-0.0514718, 2.37648)"/>
  <path d="M 70.933472,109.86904 C 70.786011,93.177856 68.666654,83.890642 74.379621,82.666426 C 79.876705,81.773001 82.943821,101.09718 83.807348,104.40890 C 86.995616,120.42583 73.318673,123.17747 70.933472,109.86904 z " id="path11942" style="fill: rgb(31, 78, 179); fill-opacity: 1; fill-rule: evenodd; stroke: rgb(0, 0, 0); stroke-width: 3.75; stroke-linecap: round; stroke-linejoin: round; stroke-miterlimit: 4; stroke-opacity: 1;" transform="translate(-0.0514718, 2.37648)"/>
  <path d="M 90.125606,42.239439 C 80.241556,54.411739 50.708234,45.840204 43.438106,43.551939 C 42.469137,50.117222 40.903590,53.749257 39.219356,55.458189 C 43.491540,64.176603 52.741243,70.239439 63.531856,70.239439 C 78.362306,70.239439 90.375606,58.817990 90.375606,44.739439 C 90.375606,43.881313 90.212946,43.075869 90.125606,42.239439 z " id="path1811" style="fill: url(&quot;#linearGradient1815&quot;) rgb(0, 0, 0); fill-opacity: 1; fill-rule: evenodd; stroke: none; stroke-width: 8.50416; stroke-linecap: round; stroke-linejoin: round; stroke-miterlimit: 4; stroke-opacity: 1;"/>
  <path d="M 277.77255,10.413006 C 259.86273,12.734053 245.00011,24.982776 250.94330,52.843536 C 252.65733,62.587094 260.20260,66.655659 262.97150,47.894908 C 270.86907,50.380658 305.06901,60.338769 311.77738,42.997753 C 315.77056,35.830450 307.46429,8.0312334 277.77255,10.413006 z "  style="fill: rgb(255, 255, 255); fill-opacity: 1; fill-rule: evenodd; stroke: rgb(0, 0, 0); stroke-width: 3.75; stroke-linecap: round; stroke-linejoin: round; stroke-miterlimit: 4; stroke-opacity: 1;"/>
  <path d="M 59.628510,6.2578814 C 41.718690,8.5789284 26.856070,20.827651 32.799250,48.688411 C 34.513290,58.431969 42.058560,62.500534 44.827460,43.739783 C 52.725030,46.225533 86.924970,56.183644 93.633340,38.842628 C 97.626510,31.675325 89.320250,3.8761084 59.628510,6.2578814 z " style="fill: url(&quot;#radialGradient1818&quot;) rgb(0, 0, 0); fill-opacity: 1; fill-rule: evenodd; stroke: none; stroke-width: 3.75; stroke-linecap: round; stroke-linejoin: round; stroke-miterlimit: 4; stroke-opacity: 1;"/>
  <path d="M 42.062500,65.812500 C 34.926084,76.261592 31.515418,89.811638 33.343750,102.28125 C 40.404029,114.60166 56.866473,116.47672 69.750000,115.25000 C 68.688470,106.70204 68.109480,97.601929 69.284970,89.010214 C 71.780616,84.580906 63.471642,82.700871 62.406250,78.312500 C 59.097176,71.072556 49.999461,71.890341 44.753848,66.630403 C 43.883626,66.427058 42.803221,64.058590 42.062500,65.812500 z M 83.250000,69.718750 C 82.103990,75.025469 81.570341,80.750808 78.218750,85.250000 C 83.402143,92.181530 84.743967,101.36357 86.125000,109.71875 C 95.701016,102.98293 92.988051,89.378574 90.774096,79.605886 C 89.773650,75.736542 86.436451,67.658343 83.609912,68.222275 C 83.531963,68.546367 83.292024,69.544017 83.250000,69.718750 z " id="path1819" style="fill: url(&quot;#radialGradient1822&quot;) rgb(0, 0, 0); fill-opacity: 1; fill-rule: evenodd; stroke: none; stroke-width: 3.75; stroke-linecap: round; stroke-linejoin: round; stroke-miterlimit: 4; stroke-opacity: 1;"/>
  <path d="M 70.445695,112.56113 C 70.298235,95.869938 68.178877,86.582728 73.891845,85.358512 C 79.388925,84.465087 82.456045,103.78927 83.319575,107.10099 C 86.507835,123.11792 72.830895,125.86956 70.445695,112.56113 z " style="fill: url(&quot;#radialGradient1824&quot;) rgb(0, 0, 0); fill-opacity: 1; fill-rule: evenodd; stroke: none; stroke-width: 3.75; stroke-linecap: round; stroke-linejoin: round; stroke-miterlimit: 4; stroke-opacity: 1;"/>
  <path d="M 77.562329,79.466759 C 77.562329,82.047091 75.545708,84.141274 73.060944,84.141274 C 70.576179,84.141274 68.559558,82.047091 68.559558,79.466759 C 68.559558,76.886426 69.191137,70.637118 71.675902,70.637118 C 74.160666,70.637118 77.562329,76.886426 77.562329,79.466759 z " style="fill: rgb(31, 78, 179); fill-opacity: 1; fill-rule: evenodd; stroke: rgb(0, 0, 0); stroke-width: 3.75; stroke-linecap: round; stroke-linejoin: round; stroke-opacity: 1; stroke-miterlimit: 4; stroke-dasharray: none;"/>
  <path d="M 76.523544,78.947370 C 76.523544,81.527702 74.506924,83.621885 72.022164,83.621885 C 69.537394,83.621885 67.520774,81.527702 67.520774,78.947370 C 67.520774,76.367037 68.152354,70.117729 70.637114,70.117729 C 73.121884,70.117729 76.523544,76.367037 76.523544,78.947370 z "  style="fill: url(&quot;#radialGradient1828&quot;) rgb(0, 0, 0); fill-opacity: 1; fill-rule: evenodd; stroke: none; stroke-width: 3.75; stroke-linecap: round; stroke-linejoin: round; stroke-miterlimit: 4; stroke-opacity: 1;"/>
</svg>
